# xmcd
#
# Track frame offsets:
#	150
#	21318
#	40686
#	57580
#	75767
#	91322
#	105367
#	124693
#	135263
#	152187
#	167990
#	184303
#	201437
#	210578
#	233699
#	258118
#	274441
#	299156
#
# Disc length: 4252 seconds
#
# Revision: 1
# Processed by: cddbd v1.5.1PL0 Copyright (c) Steve Scherf et al.
# Submitted via: audiograbber 1.83.01
#
DISCID=fe109a12
DTITLE=Lars-Luis Linek - Anything Can Happen CD2
DYEAR=1900
DGENRE=Blues
TTITLE0=Doc Hancock
TTITLE1=Miles Smiles
TTITLE2=Impressions
TTITLE3=Tabarca Island
TTITLE4=Minor Incident
TTITLE5=Venga Vamonos
TTITLE6=Wayne's Brains
TTITLE7=Getting Nervous
TTITLE8=Hamburg
TTITLE9=Paco El Curandero
TTITLE10=Big City Life
TTITLE11=Manolo Y Los Dos Capitanes
TTITLE12=Boogie Boom
TTITLE13=In The Evening
TTITLE14=Gipsy Queen
TTITLE15=Looking For A Woman
TTITLE16=Imagination
TTITLE17=I Gotta Go
EXTD=
EXTT0=
EXTT1=
EXTT2=
EXTT3=
EXTT4=
EXTT5=
EXTT6=
EXTT7=
EXTT8=
EXTT9=
EXTT10=
EXTT11=
EXTT12=
EXTT13=
EXTT14=
EXTT15=
EXTT16=
EXTT17=
PLAYORDER=
